<?xml version="1.0" encoding="UTF-8"?>
<svg width="33px" height="32px" viewBox="0 0 33 32" version="1.1" xmlns="http://www.w3.org/2000/svg" xmlns:xlink="http://www.w3.org/1999/xlink">
    <title>1) icon/ 1) line/ close</title>
    <g id="Page-3" stroke="none" stroke-width="1" fill="none" fill-rule="evenodd">
        <g id="Artboard" transform="translate(-331.000000, -105.000000)" fill="#181E27">
            <g id="export" transform="translate(331.794753, 105.000000)">
                <path d="M17.7221142,16 L31.6096406,2.11281184 C32.0852827,1.63716973 32.0852827,0.866001513 31.6096406,0.390359408 C31.1339985,-0.085282697 30.3628303,-0.085282697 29.8871882,0.390359408 L16,14.2778858 L2.11281184,0.390359408 C1.63716973,-0.0852826799 0.866001524,-0.0852826718 0.390359426,0.390359426 C-0.0852826718,0.866001524 -0.0852826799,1.63716973 0.390359408,2.11281184 L14.2778858,16 L0.390359408,29.8871882 C-0.085282697,30.3628303 -0.085282697,31.1339985 0.390359408,31.6096406 C0.866001513,32.0852827 1.63716973,32.0852827 2.11281184,31.6096406 L16,17.7221142 L29.8871882,31.6096406 C30.3628303,32.0852827 31.1339985,32.0852827 31.6096406,31.6096406 C32.0852827,31.1339985 32.0852827,30.3628303 31.6096406,29.8871882 L17.7221142,16 Z"></path>
            </g>
        </g>
    </g>
</svg>