<?xml version="1.0" encoding="UTF-8"?>
<svg width="26px" height="32px" viewBox="0 0 26 32" version="1.1" xmlns="http://www.w3.org/2000/svg" xmlns:xlink="http://www.w3.org/1999/xlink">
    <title>feel</title>
    <g id="Page-3" stroke="none" stroke-width="1" fill="none" fill-rule="evenodd">
        <g id="Artboard" transform="translate(-271.000000, -105.000000)" fill="#181E27">
            <g id="feel" transform="translate(267.794753, 105.000000)">
                <path d="M15.96875,24.5625 C18.0225589,24.5625 19.6875,26.2274411 19.6875,28.28125 C19.6875,30.3350589 18.0225589,32 15.96875,32 C13.9149411,32 12.25,30.3350589 12.25,28.28125 C12.25,26.2274411 13.9149411,24.5625 15.96875,24.5625 Z M21.8664246,5.22303601e-07 C25.5818268,5.22303601e-07 28.59375,3.01003472 28.59375,6.72327078 C28.59375,12.5070035 18.9259807,20.0954241 16.5315448,21.8861492 C16.2165886,22.1217297 15.783835,22.1212389 15.4694145,21.8849446 C13.0766512,20.0870907 3.40625,12.4658527 3.40625,6.72327078 C3.40625,3.01003472 6.41817322,5.22303601e-07 10.1335754,5.22303601e-07 C12.565899,-0.000955580592 14.8091669,1.31079528 16,3.43039272 C17.1908331,1.31079528 19.434101,-0.000955580592 21.8664246,5.22303601e-07 Z" id="Combined-Shape"></path>
            </g>
        </g>
    </g>
</svg>