<?xml version="1.0" encoding="UTF-8"?>
<svg width="32px" height="29px" viewBox="0 0 32 29" version="1.1" xmlns="http://www.w3.org/2000/svg" xmlns:xlink="http://www.w3.org/1999/xlink">
    <title>feel3</title>
    <g id="Page-3" stroke="none" stroke-width="1" fill="none" fill-rule="evenodd">
        <g id="Artboard" transform="translate(-332.000000, -170.000000)" fill="#181E27">
            <g id="feel3" transform="translate(332.000000, 169.000000)">
                <path d="M23.453125,1.96875066 C28.1734375,1.96875066 32,5.79522008 32,10.5156263 C32,17.8681263 19.717375,27.5148138 16.6753125,29.7912513 C16.2751696,30.0907302 15.7253685,30.0901063 15.3259062,29.7897201 C12.2859688,27.5042201 0,17.8158138 0,10.5156263 C0,5.79522008 3.8265625,1.96875066 8.546875,1.96875066 C11.6370727,1.96753523 14.4870805,3.63508258 16,6.32959508 C17.5129195,3.63508258 20.3629273,1.96753523 23.453125,1.96875066 Z M20.4710999,14.2449069 C19.1143716,14.2442797 17.863117,14.9757323 17.1993307,16.1575741 L17.1993307,16.1575741 L16.03125,18.2307427 L14.8631693,16.1574254 C14.5408753,15.5860737 14.0749526,15.1085641 13.5114072,14.7720467 C12.3519782,14.0828921 10.9113742,14.068531 9.73840445,14.7344343 C8.56543472,15.4003376 7.84071467,16.6439687 7.84033203,17.9915567 C7.84033203,18.3599671 7.92158966,18.7765903 8.0818338,19.2298054 C8.24544739,19.692466 8.49272003,20.1967573 8.81681976,20.7286226 C9.00282328,21.0339151 9.21422701,21.3487846 9.45030011,21.6723176 C9.62487421,21.8638188 9.80557202,22.0574883 9.99158398,22.2526939 C10.2769364,22.5521547 10.5659934,22.8460086 10.8559449,23.1329601 C12.8850048,25.0070792 14.7968833,26.5451321 16.0031875,27.4767826 C17.3650222,26.4295206 19.6253427,24.6123936 21.9377763,22.4106941 L22.0727677,22.2702097 C22.2530237,22.0812694 22.4282856,21.8937385 22.5984887,21.7076983 C22.8394961,21.3773696 23.0556554,21.0555966 23.2453824,20.7436275 C23.5693518,20.2109441 23.81655,19.7052769 23.9801636,19.240664 C24.1407428,18.7845669 24.222168,18.364318 24.222168,17.9915567 C24.222168,15.9223787 22.5427576,14.2449069 20.4710999,14.2449069 Z M21.7666626,9.7322321 C20.0140366,9.73142045 18.3976618,10.6779256 17.5401805,12.2072378 L17.5401805,12.2072378 L16.03125,14.8899334 L14.5223195,12.2070453 C14.1059791,11.467712 13.5040986,10.849811 12.7761088,10.4143549 C11.2783546,9.52258374 9.41737763,9.50400033 7.90213149,10.3656842 C6.38688534,11.2273681 5.45068961,12.836636 5.45019531,14.5804249 C5.45019531,15.0571508 5.55516418,15.5962643 5.76216809,16.1827281 C5.93693565,16.6777727 6.18559556,17.2096506 6.50315809,17.7680781 C6.62168536,15.0634135 8.85431612,12.9062504 11.5914001,12.9062504 C13.4322405,12.9055272 15.1299991,13.8977014 16.03125,15.5009096 C16.9325009,13.8977014 18.6302595,12.9055272 20.4710999,12.9062504 C23.2830048,12.9062504 25.5625,15.1829618 25.5625,17.9915567 L25.5600186,17.784866 C25.8769173,17.2260897 26.1251247,16.6933163 26.2996826,16.1967791 C26.5071194,15.6065861 26.6123047,15.0627808 26.6123047,14.5804249 C26.6123047,11.9028931 24.4428368,9.7322321 21.7666626,9.7322321 Z M23.453125,4.21863107 C21.1756009,4.21757688 19.0751341,5.44692951 17.9608437,7.43325133 L17.9608437,7.43325133 L16,10.9176263 L14.0391563,7.43300133 C13.4981251,6.47273048 12.715986,5.67017994 11.7699688,5.10459508 C9.82364859,3.94633277 7.40532322,3.92219601 5.43627239,5.04137989 C3.46722156,6.16056377 2.25064234,8.25073487 2.25,10.5156263 C2.25,11.1348138 2.38640625,11.8350326 2.65540625,12.5967513 C2.9300625,13.3743451 3.34515625,14.2219076 3.88921875,15.1158138 L3.726,14.84075 L3.71875,14.5804249 C3.71875,11.0234085 6.5394378,8.12567726 10.0649361,8.00397978 L10.2958374,8.00000051 C12.6738411,7.99906472 14.8670112,9.28294549 16.03125,11.3575089 C17.1954888,9.28294549 19.3886589,7.99906472 21.7666626,8.00000051 C25.3990906,8.00000051 28.34375,10.9460821 28.34375,14.5804249 C28.34375,14.6381955 28.3427656,14.69615 28.3408144,14.7542805 C28.7716286,14.0004983 29.1089581,13.2825379 29.34375,12.6150013 C29.6133125,11.8484388 29.75,11.1421263 29.75,10.5156263 C29.75,7.03795829 26.930793,4.21863107 23.453125,4.21863107 Z" id="Combined-Shape"></path>
            </g>
        </g>
    </g>
</svg>