<?xml version="1.0" encoding="UTF-8"?>
<svg width="33px" height="32px" viewBox="0 0 33 32" version="1.1" xmlns="http://www.w3.org/2000/svg" xmlns:xlink="http://www.w3.org/1999/xlink">
    <title>listen</title>
    <g id="Page-3" stroke="none" stroke-width="1" fill="none" fill-rule="evenodd">
        <g id="Artboard" transform="translate(-203.000000, -105.000000)" fill="#181E27">
            <g id="listen" transform="translate(203.794753, 105.000000)">
                <path d="M22.5737604,19.7858042 C23.3529031,20.1846085 24.158439,20.4580672 24.9590109,20.6114683 L25.3017178,20.6698765 L25.301492,30.6249288 C25.301492,31.3843203 24.6858835,31.9999288 23.926492,31.9999288 C23.2117705,31.9999288 22.624414,31.4546147 22.5577863,30.7573505 L22.551492,30.6249288 L22.551492,20.0311788 C22.551492,19.9467244 22.559106,19.8640484 22.5737604,19.7858042 Z M9.42622292,11.7136167 C9.4408773,11.7918609 9.44849139,11.8745369 9.44849139,11.9589913 L9.44849139,22.5527413 C9.44849139,23.3121328 8.83288292,23.9277413 8.07349139,23.9277413 C7.31409985,23.9277413 6.69849139,23.3121328 6.69849139,22.5527413 L6.69826552,12.597689 C7.61085254,12.4614527 8.53577421,12.1693931 9.42622292,11.7136167 Z M20.1279687,18.5569259 C20.5455735,18.8493359 20.6713804,19.4031343 20.4391102,19.8424327 L20.3735443,19.9496544 L19.7282708,20.8712005 C19.4114933,21.3236056 18.7879475,21.4335536 18.3355423,21.1167761 C17.9179376,20.8243661 17.7921307,20.2705677 18.0244009,19.8312693 L18.0899667,19.7240476 L18.7352402,18.8025015 C19.0520177,18.3500964 19.6755635,18.2401484 20.1279687,18.5569259 Z M28.1461427,9.18875473 C29.8330475,10.1626897 31.0400558,11.6056695 31.6185746,13.1589278 C32.1756804,14.6546945 32.1471597,16.2552981 31.3692035,17.6027576 C30.5912474,18.9502172 29.2193444,19.7752186 27.6454196,20.0406342 C26.010999,20.3162514 24.1578376,19.9924415 22.4709329,19.0185066 C20.7840281,18.0445717 19.5770198,16.6015918 18.998501,15.0483335 C18.4413952,13.5525668 18.469916,11.9519633 19.2478721,10.6045037 C20.0258282,9.25704411 21.3977312,8.43204267 22.971656,8.16662707 C24.6060767,7.89100987 26.459238,8.2148198 28.1461427,9.18875473 Z M18.3780177,16.4714155 C18.6114233,16.9719555 18.3948681,17.566936 17.8943282,17.8003416 L16.8747319,18.2757871 C16.3741919,18.5091927 15.7792115,18.2926376 15.5458059,17.7920976 C15.3124002,17.2915576 15.5289554,16.6965772 16.0294954,16.4631715 L17.0490916,15.987726 C17.5496316,15.7543204 18.1446121,15.9708756 18.3780177,16.4714155 Z M28.3697459,14.1930813 L28.3056089,14.2907143 L27.2431089,16.1310183 L27.1906247,16.235379 C26.9919814,16.6949695 27.1650055,17.2406258 27.6091343,17.4970437 C28.0532632,17.7534616 28.6123274,17.6304766 28.9110228,17.2286513 L28.9751597,17.1310183 L30.0376597,15.2907143 L30.0901439,15.1863536 C30.2887872,14.7267631 30.1157632,14.1811068 29.6716343,13.9246889 C29.2275055,13.668271 28.6684413,13.7912559 28.3697459,14.1930813 Z M20.5793873,11.5077413 C20.3229694,11.9518701 20.4459543,12.5109343 20.8477797,12.8096297 L20.9454127,12.8737667 L23.0563496,14.0925167 L23.1607103,14.1450009 C23.6203008,14.3436442 24.1659571,14.1706201 24.422375,13.7264913 C24.6787929,13.2823624 24.555808,12.7232982 24.1539826,12.4246028 L24.0563496,12.3604659 L21.9454127,11.1417159 L21.841052,11.0892317 C21.3814615,10.8905884 20.8358052,11.0636124 20.5793873,11.5077413 Z M9.02832732,0.09443957 C10.6022521,0.359855172 11.9741551,1.18485661 12.7521112,2.53231618 C13.5300674,3.87977575 13.5585881,5.48037932 13.0014824,6.97614597 C12.4229635,8.52940435 11.2159553,9.97238415 9.52905048,10.9463191 C7.84214571,11.920254 5.9889844,12.2440639 4.35456377,11.9684467 C2.78063899,11.7030311 1.40873599,10.8780297 0.630779842,9.53057013 C-0.147176306,8.18311056 -0.175697008,6.58250699 0.38140873,5.08674034 C0.95992755,3.53348196 2.16693583,2.09050216 3.85384061,1.11656723 C5.54074538,0.142632304 7.39390669,-0.181177625 9.02832732,0.09443957 Z M2.32834903,5.85250139 C1.88422016,6.10891931 1.71119616,6.65457558 1.90983945,7.11416607 L1.96232362,7.21852679 L3.02482362,9.05883077 C3.300966,9.5371234 3.91255641,9.70099855 4.39084903,9.42485618 C4.83497789,9.16843826 5.0080019,8.62278199 4.80935861,8.1631915 L4.75687443,8.05883077 L3.69437443,6.21852679 C3.41823206,5.74023417 2.80664165,5.57635901 2.32834903,5.85250139 Z M15.6014772,5.15997974 L16.6881437,5.45115117 C17.2216098,5.59409298 17.5381923,6.14242994 17.3952505,6.67589604 C17.2523087,7.20936214 16.7039717,7.52594463 16.1705056,7.38300282 L15.0838391,7.0918314 C14.550373,6.94888958 14.2337905,6.40055263 14.3767323,5.86708652 C14.5196741,5.33362042 15.0680111,5.01703793 15.6014772,5.15997974 Z M10.1589314,3.0170442 L10.0545707,3.06952838 L7.94363374,4.28827838 C7.46534112,4.56442075 7.30146596,5.17601116 7.57760834,5.65430378 C7.83402626,6.09843265 8.37968253,6.27145665 8.83927302,6.07281336 L8.94363374,6.02032919 L11.0545707,4.80157919 C11.5328633,4.52543681 11.6967384,3.91384641 11.4205961,3.43555378 C11.1641781,2.99142492 10.6185219,2.81840091 10.1589314,3.0170442 Z M17.3952505,2.33583652 C17.5279822,2.83119791 17.2644914,3.3393816 16.7990498,3.52389914 L16.6881437,3.5605814 L15.6014772,3.85175282 C15.0680111,3.99469463 14.5196741,3.67811214 14.3767323,3.14464604 C14.2440006,2.64928466 14.5074914,2.14110096 14.972933,1.95658343 L15.0838391,1.91990117 L16.1705056,1.62872974 C16.7039717,1.48578793 17.2523087,1.80237042 17.3952505,2.33583652 Z" id="Combined-Shape"></path>
            </g>
        </g>
    </g>
</svg>