<?xml version="1.0" encoding="UTF-8"?>
<svg width="33px" height="32px" viewBox="0 0 33 32" version="1.1" xmlns="http://www.w3.org/2000/svg" xmlns:xlink="http://www.w3.org/1999/xlink">
    <title>next</title>
    <g id="Page-3" stroke="none" stroke-width="1" fill="none" fill-rule="evenodd">
        <g id="Artboard" transform="translate(-75.000000, -169.000000)" fill="#181E27" fill-rule="nonzero">
            <g id="next" transform="translate(75.794753, 169.000000)">
                <path d="M16,0 C24.836556,0 32,7.163444 32,16 C32,24.836556 24.836556,32 16,32 C7.163444,32 0,24.836556 0,16 C0,7.163444 7.163444,0 16,0 Z M16,2.25 C8.40608469,2.25 2.25,8.40608469 2.25,16 C2.25,23.5939153 8.40608469,29.75 16,29.75 C23.5939153,29.75 29.75,23.5939153 29.75,16 C29.75,8.40608469 23.5939153,2.25 16,2.25 Z M17.533038,9.15970084 L23.6539311,15.2805939 C24.0444554,15.6711182 24.0444554,16.3042832 23.6539311,16.6948075 L17.533038,22.8157006 C17.1425137,23.2062248 16.5093487,23.2062248 16.1188244,22.8157006 L15.9420477,22.6389239 C15.5515234,22.2483996 15.5515234,21.6152346 15.9420477,21.2247103 L21.1790573,15.9877007 L15.94206,10.7506788 C15.5515548,10.3601431 15.5515494,9.72697589 15.9420698,9.33645544 L16.1188244,9.15970084 C16.5093487,8.76917655 17.1425137,8.76917655 17.533038,9.15970084 Z M11.169077,9.15970084 L17.28997,15.2805939 C17.6804943,15.6711182 17.6804943,16.3042832 17.28997,16.6948075 L11.169077,22.8157006 C10.7785527,23.2062248 10.1453877,23.2062248 9.7548634,22.8157006 L9.5780867,22.6389239 C9.18756241,22.2483996 9.18756241,21.6152346 9.5780867,21.2247103 L14.8150963,15.9877007 L9.57809898,10.7506788 C9.18759377,10.3601431 9.18758834,9.72697589 9.5781088,9.33645544 L9.7548634,9.15970084 C10.1453877,8.76917655 10.7785527,8.76917655 11.169077,9.15970084 Z" id="Combined-Shape"></path>
            </g>
        </g>
    </g>
</svg>