<?xml version="1.0" encoding="UTF-8"?>
<svg width="33px" height="32px" viewBox="0 0 33 32" version="1.1" xmlns="http://www.w3.org/2000/svg" xmlns:xlink="http://www.w3.org/1999/xlink">
    <title>play</title>
    <g id="Page-3" stroke="none" stroke-width="1" fill="none" fill-rule="evenodd">
        <g id="Artboard" transform="translate(-139.000000, -169.000000)" fill="#181E27" fill-rule="nonzero">
            <g id="play" transform="translate(139.794753, 169.000000)">
                <path d="M16,0 C24.836556,0 32,7.163444 32,16 C32,24.836556 24.836556,32 16,32 C7.163444,32 0,24.836556 0,16 C0,7.163444 7.163444,0 16,0 Z M16,2.25 C8.40608469,2.25 2.25,8.40608469 2.25,16 C2.25,23.5939153 8.40608469,29.75 16,29.75 C23.5939153,29.75 29.75,23.5939153 29.75,16 C29.75,8.40608469 23.5939153,2.25 16,2.25 Z M11.1148116,10 C11.2878806,10 11.4585728,10.040295 11.6133704,10.1176938 L21.3835031,15.0027601 C21.9341961,15.2781066 22.1574085,15.9477438 21.882062,16.4984368 C21.7741887,16.7141834 21.5992497,16.8891224 21.3835031,16.9969957 L11.6133704,21.882062 C11.0626775,22.1574085 10.3930403,21.9341961 10.1176938,21.3835031 C10.040295,21.2287055 10,21.0580133 10,20.8849442 L10,11.1148116 C10,10.4991181 10.4991181,10 11.1148116,10 Z" id="Combined-Shape"></path>
            </g>
        </g>
    </g>
</svg>