<?xml version="1.0" encoding="UTF-8"?>
<svg width="33px" height="33px" viewBox="0 0 33 33" version="1.1" xmlns="http://www.w3.org/2000/svg" xmlns:xlink="http://www.w3.org/1999/xlink">
    <title>see</title>
    <g id="Page-3" stroke="none" stroke-width="1" fill="none" fill-rule="evenodd">
        <g id="Artboard" transform="translate(-267.000000, -169.000000)" fill="#181E27">
            <g id="see" transform="translate(267.794753, 169.000000)">
                <path d="M7.5,7.09375 C11.6421356,7.09375 15,12.6901906 15,19.59375 C15,26.4973094 11.6421356,32.09375 7.5,32.09375 C3.35786438,32.09375 0,26.4973094 0,19.59375 C0,12.6901906 3.35786438,7.09375 7.5,7.09375 Z M24.5,7.09375 C28.6421356,7.09375 32,12.6901906 32,19.59375 C32,26.4973094 28.6421356,32.09375 24.5,32.09375 C20.3578644,32.09375 17,26.4973094 17,19.59375 C17,12.6901906 20.3578644,7.09375 24.5,7.09375 Z M7.5,9.09375 C6.27297804,9.09375 4.97808581,10.006572 3.91168499,11.7839067 C2.76628016,13.6929148 2.06864418,16.3178906 2.00479994,19.1650685 L2,19.59375 L2,19.59375 C2,22.6053219 2.70900992,25.3991348 3.91168499,27.4035933 C4.97808581,29.180928 6.27297804,30.09375 7.5,30.09375 C8.72702196,30.09375 10.0219142,29.180928 11.088315,27.4035933 C12.2909901,25.3991348 13,22.6053219 13,19.59375 C13,16.5821781 12.2909901,13.7883652 11.088315,11.7839067 C10.0219142,10.006572 8.72702196,9.09375 7.5,9.09375 Z M24.5,9.09375 C23.272978,9.09375 21.9780858,10.006572 20.911685,11.7839067 C19.7662802,13.6929148 19.0686442,16.3178906 19.0047999,19.1650685 L19,19.59375 L19,19.59375 C19,22.6053219 19.7090099,25.3991348 20.911685,27.4035933 C21.9780858,29.180928 23.272978,30.09375 24.5,30.09375 C25.727022,30.09375 27.0219142,29.180928 28.088315,27.4035933 C29.2909901,25.3991348 30,22.6053219 30,19.59375 C30,16.5821781 29.2909901,13.7883652 28.088315,11.7839067 C27.0219142,10.006572 25.727022,9.09375 24.5,9.09375 Z M6.21875,15.375 C8.54870129,15.375 10.4375,17.2637987 10.4375,19.59375 C10.4375,21.9237013 8.54870129,23.8125 6.21875,23.8125 C3.88879871,23.8125 2,21.9237013 2,19.59375 C2,17.2637987 3.88879871,15.375 6.21875,15.375 Z M23.21875,15.375 C25.5487013,15.375 27.4375,17.2637987 27.4375,19.59375 C27.4375,21.9237013 25.5487013,23.8125 23.21875,23.8125 C20.8887987,23.8125 19,21.9237013 19,19.59375 C19,17.2637987 20.8887987,15.375 23.21875,15.375 Z M12.992969,1.01415229 L14.7905571,1.89089458 L12.3247194,6.94661109 L10.5271313,6.0698688 L12.992969,1.01415229 Z M2.10367412,1.01415229 L4.56951182,6.0698688 L2.77192372,6.94661109 L0.306086024,1.89089458 L2.10367412,1.01415229 Z M29.992969,1.01415229 L31.7905571,1.89089458 L29.3247194,6.94661109 L27.5271313,6.0698688 L29.992969,1.01415229 Z M19.1036741,1.01415229 L21.5695118,6.0698688 L19.7719237,6.94661109 L17.306086,1.89089458 L19.1036741,1.01415229 Z M8.56394655,0 L8.56394655,5.625 L6.56394655,5.625 L6.56394655,0 L8.56394655,0 Z M25.5483215,0 L25.5483215,5.625 L23.5483215,5.625 L23.5483215,0 L25.5483215,0 Z" id="Combined-Shape"></path>
            </g>
        </g>
    </g>
</svg>