<?xml version="1.0" encoding="UTF-8"?>
<svg width="33px" height="32px" viewBox="0 0 33 32" version="1.1" xmlns="http://www.w3.org/2000/svg" xmlns:xlink="http://www.w3.org/1999/xlink">
    <title>window view</title>
    <g id="Page-3" stroke="none" stroke-width="1" fill="none" fill-rule="evenodd">
        <g id="Artboard" transform="translate(-139.000000, -105.000000)" fill="#181E27" fill-rule="nonzero">
            <g id="window-view" transform="translate(139.794753, 105.000000)">
                <path d="M1.25,21.34375 C1.80228475,21.34375 2.25,21.7914653 2.25,22.34375 L2.25,29.75 L9.625,29.75 C10.1945436,29.75 10.65625,30.2117064 10.65625,30.78125 L10.65625,30.96875 C10.65625,31.5382936 10.1945436,32 9.625,32 L1,32 C0.44771525,32 0,31.5522847 0,31 L0,22.34375 C0,21.7914653 0.44771525,21.34375 1,21.34375 L1.25,21.34375 Z M30.9873047,16 C31.5395894,16 31.9873047,16.4477153 31.9873047,17 L31.9873047,31 C31.9873047,31.5522847 31.5395894,32 30.9873047,32 L16.9873047,32 C16.4350199,32 15.9873047,31.5522847 15.9873047,31 L15.9873047,17 C15.9873047,16.4477153 16.4350199,16 16.9873047,16 L30.9873047,16 Z M9.65625,0 C10.2085347,0 10.65625,0.44771525 10.65625,1 L10.65625,1.24996875 C10.65625,1.80224808 10.2085293,2.24996108 9.65625,2.24998264 L2.25,2.25 L2.25,9.65625 C2.25,10.2085347 1.80228475,10.65625 1.25,10.65625 L1,10.65625 C0.44771525,10.65625 0,10.2085347 0,9.65625 L0,1 C0,0.44771525 0.44771525,0 1,0 L9.65625,0 Z M31,0 C31.5522847,0 32,0.44771525 32,1 L32,9.65625 C32,10.2085347 31.5522847,10.65625 31,10.65625 L30.75,10.65625 C30.1977153,10.65625 29.75,10.2085347 29.75,9.65625 L29.75,2.25 L22.34375,2.24998264 C21.7914707,2.24996108 21.34375,1.80224808 21.34375,1.24996875 L21.34375,1 C21.34375,0.44771525 21.7914653,0 22.34375,0 L31,0 Z" id="Combined-Shape"></path>
            </g>
        </g>
    </g>
</svg>