<svg id="Layer_1" data-name="Layer 1" xmlns="http://www.w3.org/2000/svg" viewBox="0 0 914.14 841.89"><defs><style>.cls-1{fill:#6e7279;}.cls-2{fill:#003466;}</style></defs><title>svg</title><path class="cls-1" d="M145.43,457.67l5.2-4.07a.91.91,0,0,1,1.28.15c3.13,3.63,7.91,4.77,12.54,4.77,3.77,0,9.4-1.43,9.4-6.13,0-9.54-27.71-8.55-27.71-24.86,0-9.76,8.12-14.61,17.1-14.61,6.12,0,12.11,2.78,16.81,6.7a.84.84,0,0,1,.07,1.28l-4.34,4.92a.85.85,0,0,1-1.29.07A17.28,17.28,0,0,0,163,421.33c-4.27,0-8.4,1.5-8.4,6.48,0,8.55,27.71,7.41,27.71,24.87,0,9.69-9.55,14.25-18.1,14.25-7,0-14.32-2.43-18.88-8A.85.85,0,0,1,145.43,457.67Z"/><path class="cls-1" d="M212.54,413.85c12.82,0,25.65,8.69,25.65,26.08S225.36,466,212.54,466s-25.72-8.69-25.72-26.07S199.64,413.85,212.54,413.85Zm0,43.53c8.62,0,17.31-5.77,17.31-17.45s-8.69-17.46-17.31-17.46-17.31,5.77-17.31,17.46S203.85,457.38,212.54,457.38Z"/><path class="cls-1" d="M247.87,415.92a.87.87,0,0,1,.93-.93h1.07a2.37,2.37,0,0,1,1.49.64l27.29,29.28c.36.36.57.5.86.5s.49-.36.49-1.07V415.92a.87.87,0,0,1,.93-.93h6.7a.86.86,0,0,1,.92.93v48a.86.86,0,0,1-.92.93h-1a2.16,2.16,0,0,1-1.57-.71L257.78,434.8a1.1,1.1,0,0,0-.86-.5c-.28,0-.5.35-.5,1.07v28.56a.86.86,0,0,1-.92.93h-6.7a.87.87,0,0,1-.93-.93Z"/><path class="cls-1" d="M300.31,415H307a.87.87,0,0,1,.93.93v48a.87.87,0,0,1-.93.93h-6.69a.87.87,0,0,1-.93-.93v-48A.87.87,0,0,1,300.31,415Z"/><path class="cls-1" d="M343.34,413.92c5,0,9.76,2,14.1,4.49a.86.86,0,0,1,.22,1.28l-3.85,5.49a.81.81,0,0,1-1.28.21,15.63,15.63,0,0,0-9.12-3c-22.44,0-22.44,35.05,0,35.05,4.63,0,7.48-1.42,9.19-2.85a.78.78,0,0,1,1.21.14l3.92,5.42a.91.91,0,0,1-.22,1.28c-3.84,3-8,4.49-14.17,4.49-17.17,0-25.72-13-25.72-26S326.17,413.92,343.34,413.92Z"/><path class="cls-1" d="M470.72,422v-6.12a.86.86,0,0,1,.92-.93h39.19a.86.86,0,0,1,.92.93V422a.86.86,0,0,1-.92.93H497.51a1.92,1.92,0,0,0-2.07,2v39a.87.87,0,0,1-.93.93h-6.69a.9.9,0,0,1-.93-.93V425a1.86,1.86,0,0,0-2-2H471.64A.86.86,0,0,1,470.72,422Z"/><path class="cls-1" d="M520.66,415h6.7a.86.86,0,0,1,.92.93v18a1.88,1.88,0,0,0,2,2h19.8a1.88,1.88,0,0,0,2-2v-18A.9.9,0,0,1,553,415h6.7a.87.87,0,0,1,.93.93v48a.87.87,0,0,1-.93.93H553a.9.9,0,0,1-.92-.93v-18a1.87,1.87,0,0,0-2-2h-19.8a1.87,1.87,0,0,0-2,2v18a.86.86,0,0,1-.92.93h-6.7a.87.87,0,0,1-.93-.93v-48A.87.87,0,0,1,520.66,415Z"/><path class="cls-1" d="M569,464l22.51-49.09a1.24,1.24,0,0,1,1.07-.64,1.11,1.11,0,0,1,1,.64L616.05,464c.22.49,0,.85-.57.85h-7a1.51,1.51,0,0,1-1.35-.85l-2-4.35a3.17,3.17,0,0,0-2.85-1.78H582.71a3.17,3.17,0,0,0-2.85,1.78l-2,4.35a1.52,1.52,0,0,1-1.29.85h-7.05C569,464.86,568.75,464.5,569,464Zm17.46-14.11h12.25c1.21,0,1.64-.71,1.14-1.85l-6.41-14c-.29-.57-.57-.85-.86-.85s-.57.28-.85.85l-6.49,14C584.71,449.19,585.2,449.9,586.42,449.9Z"/><path class="cls-1" d="M623.82,463.93l7.26-48.44a.61.61,0,0,1,.57-.5h1.79a1,1,0,0,1,.85.5L652,449c.28.57.64.79.92.79s.65-.22.93-.79l17.74-33.69a.72.72,0,0,1,.57-.36h1.57a1,1,0,0,1,1,.85L682,463.93a.73.73,0,0,1-.78.93h-6.56a1,1,0,0,1-1.06-.93l-3.92-25.57c-.14-1.14-.72-1.28-1.29-.22L654.74,464a1.63,1.63,0,0,1-1.36.85h-1A1.63,1.63,0,0,1,651,464l-13.68-25.87c-.57-1.06-1.06-.92-1.21.22l-3.92,25.57a1,1,0,0,1-1.06.93H624.6A.73.73,0,0,1,623.82,463.93Z"/><path class="cls-1" d="M692.21,415.92a.87.87,0,0,1,.93-.93h30.42a.86.86,0,0,1,.92.93V422a.86.86,0,0,1-.92.93H702.75a1.86,1.86,0,0,0-2,2v9a1.87,1.87,0,0,0,2,2h15.68a.85.85,0,0,1,.92.92V443a.86.86,0,0,1-.92.93H702.75a1.86,1.86,0,0,0-2,2v9a1.86,1.86,0,0,0,2,2h20.81a.86.86,0,0,1,.92.93v6.12a.86.86,0,0,1-.92.93H693.14a.87.87,0,0,1-.93-.93Z"/><path class="cls-1" d="M733.17,457.67l5.21-4.07a.91.91,0,0,1,1.28.15c3.13,3.63,7.91,4.77,12.54,4.77,3.77,0,9.4-1.43,9.4-6.13,0-9.54-27.71-8.55-27.71-24.86,0-9.76,8.12-14.61,17.1-14.61,6.12,0,12.11,2.78,16.81,6.7a.84.84,0,0,1,.07,1.28l-4.35,4.92a.84.84,0,0,1-1.28.07,17.28,17.28,0,0,0-11.54-4.56c-4.27,0-8.41,1.5-8.41,6.48,0,8.55,27.72,7.41,27.72,24.87,0,9.69-9.55,14.25-18.1,14.25-7,0-14.32-2.43-18.88-8A.86.86,0,0,1,733.17,457.67Z"/><path class="cls-2" d="M150.6,478.48V511h19.71v2.55H147.9v-35Z"/><path class="cls-2" d="M197.22,480.73a2,2,0,0,1-3.95,0A2,2,0,0,1,197.22,480.73Zm-3.25,8V513.5h2.45V488.69Z"/><path class="cls-2" d="M239.39,493.29a10.6,10.6,0,0,0-7.71-2.6c-3.85-.05-7.55,1.4-7.45,4.55s4.4,3.95,7.5,4.5c4.4.75,10.46,1.5,10.21,7.25-.15,5.46-5.81,6.91-10.16,6.91s-8.65-1.65-10.8-5l1.8-1.6c2.05,3,5.75,4.21,9.05,4.21,3,0,7.56-.8,7.71-4.71.1-3.55-4-4.25-8.06-4.9-4.8-.8-9.55-1.7-9.6-6.65s4.8-7,9.8-6.9a13,13,0,0,1,9.21,3.3Z"/><path class="cls-2" d="M272.05,481.34v7.45h8.4v2h-8.4v15.05c0,3.36.7,5.71,4.55,5.71a9.16,9.16,0,0,0,3.8-1l.85,2a10.8,10.8,0,0,1-4.65,1.25c-5.25,0-7-3.1-7-8V490.84H264.4v-2h5.25v-7.2Z"/><path class="cls-2" d="M303.71,501.14a12.42,12.42,0,0,1,12.56-12.75c7,0,13.15,4.25,12.2,13.9H306.21a9.73,9.73,0,0,0,10.06,9.16c3.25,0,7.05-1.3,8.9-3.76l1.75,1.4c-2.4,3.16-6.7,4.76-10.65,4.76C309.31,513.85,303.71,509,303.71,501.14Zm22.56-1c0-6.1-4-9.5-10-9.5-5.11,0-9.51,3.45-10.06,9.5Z"/><path class="cls-2" d="M356.23,488.79v4.4a9.84,9.84,0,0,1,8.81-4.85c6.6,0,11.15,4.05,11.15,10.9V513.5h-2.45V499.29c0-5.6-3.45-8.6-8.8-8.55-5.11.05-8.66,3.9-8.66,9V513.5h-2.45V488.79Z"/><path class="cls-2" d="M457.52,485.24c-2.55-4.11-6.65-4.71-10.6-4.76-4.1,0-10.6,1.5-10.6,7.11,0,4.45,4.8,5.5,10.7,6.6,6.75,1.3,13.75,2.5,13.75,10.05,0,7.91-8,9.81-13.85,9.81-5.45,0-11.65-2.25-14.36-7.61l2.41-1.2c2.15,4.26,7.65,6.36,11.95,6.36s11.15-1.2,11.15-7.41c.05-5.25-5.75-6.4-11.5-7.5-6.4-1.25-12.95-2.55-12.95-9-.16-7.41,7.55-9.71,13.3-9.71,5,0,9.35.8,12.8,6Z"/><path class="cls-2" d="M485.24,501.14a12.42,12.42,0,0,1,12.55-12.75c6.95,0,13.16,4.25,12.2,13.9H487.74a9.73,9.73,0,0,0,10.05,9.16c3.25,0,7-1.3,8.9-3.76l1.75,1.4c-2.4,3.16-6.7,4.76-10.65,4.76C490.84,513.85,485.24,509,485.24,501.14Zm22.55-1c-.05-6.1-4.05-9.5-10-9.5-5.1,0-9.5,3.45-10.05,9.5Z"/><path class="cls-2" d="M534,501.14a12.42,12.42,0,0,1,12.55-12.75c7,0,13.15,4.25,12.2,13.9H536.46a9.73,9.73,0,0,0,10,9.16c3.25,0,7-1.3,8.9-3.76l1.75,1.4c-2.4,3.16-6.7,4.76-10.65,4.76C539.56,513.85,534,509,534,501.14Zm22.55-1c0-6.1-4-9.5-10-9.5-5.1,0-9.5,3.45-10,9.5Z"/><path class="cls-2" d="M620,495.14h20.16v2.55H620v15.86h-2.7V478.48h23.56v2.7H620Z"/><path class="cls-2" d="M664,501.14a12.42,12.42,0,0,1,12.55-12.75c7,0,13.16,4.25,12.21,13.9H666.46a9.73,9.73,0,0,0,10,9.16c3.25,0,7.06-1.3,8.91-3.76l1.75,1.4c-2.4,3.16-6.71,4.76-10.66,4.76C669.56,513.85,664,509,664,501.14Zm22.56-1c0-6.1-4-9.5-10-9.5-5.1,0-9.5,3.45-10,9.5Z"/><path class="cls-2" d="M712.68,501.14a12.42,12.42,0,0,1,12.55-12.75c6.95,0,13.16,4.25,12.21,13.9H715.18a9.73,9.73,0,0,0,10.05,9.16c3.25,0,7.06-1.3,8.91-3.76l1.75,1.4c-2.4,3.16-6.71,4.76-10.66,4.76C718.28,513.85,712.68,509,712.68,501.14Zm22.56-1c0-6.1-4.06-9.5-10-9.5-5.1,0-9.5,3.45-10.05,9.5Z"/><path class="cls-2" d="M765.25,478.48v35H762.8v-35Z"/><path class="cls-2" d="M603.17,385.71c-9.61,1.1-19.78,2.35-29.91,4.23a182.22,182.22,0,0,0-34.53,10.31c-6.51,2.61-13.63,2.45-22.41-.53-12.6-4.27-23.48-11.55-33.35-18.78-2.08-1.52-4.15-3.14-6.16-4.71l-.15-.12c-2.29-1.8-4.74-3.71-7.18-5.48a20.83,20.83,0,0,0-7.26-3.6c-5.26-1.26-9.82,1.57-12.22,7.55-3.53,8.79-2.94,17.75,1.74,26.62,4.1,7.74,7.89,15.4,9.34,24,1.4,8.29.79,15.37-1.87,21.63-3.93,9.27-11.19,14.8-21.58,16.44-10.13,1.6-20.33-.13-29-2.05-16.07-3.55-26.74-13.29-32.62-29.78-4.14-11.63-7.59-24.65-10.86-41a30.35,30.35,0,0,0-6.72-13.73c-2.49-2.92-5.36-4.41-8.55-4.41a13.36,13.36,0,0,0-5,1.06c-6.78,2.78-11.33,7.82-14.54,11.89-6.64,8.43-14,14.44-22.45,18.36-12.62,5.85-25.39,5.05-38-2.37-9.86-5.83-21.08-10.31-34.33-13.71-12.39-3.17-25.1-6.07-36.31-8.62l-9.63-2.21c5.72-.06,11.56-.09,17.27.16,17.06.74,39.35,2.51,60.57,9.77a108.3,108.3,0,0,1,10.13,4.16c10.26,4.71,20,3,29-5a94.68,94.68,0,0,0,9.94-10.92l.61-.75c.74-.9,1.47-1.8,2.23-2.69,7.49-8.93,15-14.14,23.52-16.38,10.82-2.84,20.39.12,28.45,8.79,6.27,6.73,10.17,15.36,11.92,26.4,2,12.66,4.28,27,9.22,40.65,3.28,9.05,9.85,14.83,19.54,17.16a114.31,114.31,0,0,0,18.8,3.07c6.36.43,11.32-1.12,14.74-4.61,3.82-3.9,5.49-10.15,4.81-18.09-.65-7.65-3.65-14.44-6.8-20.64-5.6-11-6.61-22.18-3-33.12,2.28-6.91,5.95-11.51,11.21-14.06,6.83-3.32,13.59-2.26,20.68,3.25,3.4,2.64,6.8,5.47,10.09,8.2l.78.64c3.7,3.07,7.52,6.25,11.42,9.23,6.42,4.9,15.13,11,25.6,14.43a29.29,29.29,0,0,0,19.62-.1c10.56-3.74,22.42-6.46,37.31-8.56A186.79,186.79,0,0,1,603.17,385.71Z"/></svg>