<svg id="Layer_1" data-name="Layer 1" xmlns="http://www.w3.org/2000/svg" viewBox="0 0 914.14 841.89"><defs><style>.cls-1{fill:#6e7279;}.cls-2{fill:#003466;}</style></defs><title>svg</title><path class="cls-1" d="M210.35,415.14l5.2-4.06a.93.93,0,0,1,1.29.14c3.13,3.64,7.9,4.78,12.54,4.78,3.77,0,9.4-1.43,9.4-6.13,0-9.55-27.71-8.55-27.71-24.86,0-9.76,8.12-14.61,17.09-14.61,6.13,0,12.12,2.78,16.82,6.7a.84.84,0,0,1,.07,1.28l-4.35,4.92a.86.86,0,0,1-1.28.07,17.3,17.3,0,0,0-11.54-4.56c-4.28,0-8.41,1.49-8.41,6.48,0,8.55,27.72,7.41,27.72,24.86,0,9.69-9.55,14.25-18.1,14.25-7.05,0-14.32-2.42-18.88-8A.85.85,0,0,1,210.35,415.14Z"/><path class="cls-1" d="M277.46,371.33c12.83,0,25.65,8.69,25.65,26.07s-12.82,26.08-25.65,26.08-25.71-8.69-25.71-26.08S264.57,371.33,277.46,371.33Zm0,43.53c8.63,0,17.32-5.77,17.32-17.46S286.09,380,277.46,380s-17.31,5.77-17.31,17.45S268.77,414.86,277.46,414.86Z"/><path class="cls-1" d="M312.8,373.39a.86.86,0,0,1,.93-.92h1.06a2.35,2.35,0,0,1,1.5.64l27.29,29.28c.35.36.57.5.85.5s.5-.36.5-1.07V373.39a.86.86,0,0,1,.93-.92h6.69a.86.86,0,0,1,.93.92v48a.87.87,0,0,1-.93.93h-1a2.2,2.2,0,0,1-1.57-.71L322.7,392.27a1.11,1.11,0,0,0-.85-.5c-.29,0-.5.36-.5,1.07v28.57a.87.87,0,0,1-.93.93h-6.69a.87.87,0,0,1-.93-.93Z"/><path class="cls-1" d="M365.23,372.47h6.7a.86.86,0,0,1,.93.92v48a.87.87,0,0,1-.93.93h-6.7a.86.86,0,0,1-.92-.93v-48A.85.85,0,0,1,365.23,372.47Z"/><path class="cls-1" d="M408.26,371.4c5,0,9.76,2,14.11,4.49a.85.85,0,0,1,.21,1.28l-3.84,5.48a.82.82,0,0,1-1.29.22,15.57,15.57,0,0,0-9.11-3c-22.45,0-22.45,35.05,0,35.05,4.63,0,7.48-1.43,9.19-2.85a.77.77,0,0,1,1.21.14l3.92,5.41a.92.92,0,0,1-.22,1.29c-3.85,3-8,4.49-14.18,4.49-17.17,0-25.72-13-25.72-26S391.09,371.4,408.26,371.4Z"/><path class="cls-1" d="M447.66,379.52v-6.13a.86.86,0,0,1,.93-.92h39.18a.86.86,0,0,1,.93.92v6.13a.87.87,0,0,1-.93.93H474.45a1.93,1.93,0,0,0-2.07,2v39a.86.86,0,0,1-.92.93h-6.7a.9.9,0,0,1-.93-.93v-39a1.86,1.86,0,0,0-2-2H448.59A.87.87,0,0,1,447.66,379.52Z"/><path class="cls-1" d="M497.6,372.47h6.7a.85.85,0,0,1,.92.92v18a1.87,1.87,0,0,0,2,2H527a1.87,1.87,0,0,0,2-2v-18a.9.9,0,0,1,.93-.92h6.69a.86.86,0,0,1,.93.92v48a.87.87,0,0,1-.93.93H530a.9.9,0,0,1-.93-.93v-18a1.87,1.87,0,0,0-2-2h-19.8a1.88,1.88,0,0,0-2,2v18a.86.86,0,0,1-.92.93h-6.7a.86.86,0,0,1-.92-.93v-48A.85.85,0,0,1,497.6,372.47Z"/><path class="cls-1" d="M545.9,421.48l22.52-49.08a1.22,1.22,0,0,1,1.06-.65,1.12,1.12,0,0,1,1,.65L593,421.48c.21.5,0,.86-.57.86h-7a1.5,1.5,0,0,1-1.35-.86l-2-4.34a3.17,3.17,0,0,0-2.85-1.78h-19.6a3.17,3.17,0,0,0-2.85,1.78l-2,4.34a1.49,1.49,0,0,1-1.28.86h-7.06C545.9,422.34,545.69,422,545.9,421.48Zm17.46-14.1h12.25c1.21,0,1.64-.72,1.14-1.86l-6.41-14c-.29-.57-.57-.85-.86-.85s-.56.28-.85.85l-6.48,14C561.65,406.66,562.15,407.38,563.36,407.38Z"/><path class="cls-1" d="M600.76,421.41,608,373a.6.6,0,0,1,.57-.5h1.78a1,1,0,0,1,.85.5l17.67,33.55c.29.57.64.78.93.78s.64-.21.92-.78l17.74-33.7a.75.75,0,0,1,.57-.35h1.57a1,1,0,0,1,1,.85l7.27,48.09a.74.74,0,0,1-.79.93h-6.55a1,1,0,0,1-1.07-.93l-3.92-25.57c-.14-1.15-.71-1.29-1.28-.22l-13.61,25.86a1.59,1.59,0,0,1-1.35.86h-1a1.59,1.59,0,0,1-1.35-.86L614.3,395.62c-.57-1.07-1.07-.93-1.21.22l-3.92,25.57a1,1,0,0,1-1.07.93h-6.56A.73.73,0,0,1,600.76,421.41Z"/><path class="cls-1" d="M669.15,373.39a.86.86,0,0,1,.93-.92H700.5a.86.86,0,0,1,.93.92v6.13a.87.87,0,0,1-.93.93H679.7a1.87,1.87,0,0,0-2,2v9a1.87,1.87,0,0,0,2,2h15.67a.87.87,0,0,1,.93.93v6.13a.86.86,0,0,1-.93.92H679.7a1.88,1.88,0,0,0-2,2v9a1.88,1.88,0,0,0,2,2h20.8a.86.86,0,0,1,.93.92v6.13a.87.87,0,0,1-.93.93H670.08a.87.87,0,0,1-.93-.93Z"/><path class="cls-1" d="M710.12,415.14l5.2-4.06a.92.92,0,0,1,1.28.14c3.13,3.64,7.91,4.78,12.54,4.78,3.78,0,9.4-1.43,9.4-6.13,0-9.55-27.71-8.55-27.71-24.86,0-9.76,8.12-14.61,17.1-14.61,6.12,0,12.11,2.78,16.81,6.7a.84.84,0,0,1,.07,1.28l-4.34,4.92a.87.87,0,0,1-1.29.07,17.28,17.28,0,0,0-11.54-4.56c-4.27,0-8.4,1.49-8.4,6.48,0,8.55,27.71,7.41,27.71,24.86,0,9.69-9.55,14.25-18.1,14.25-7.05,0-14.32-2.42-18.88-8A.85.85,0,0,1,710.12,415.14Z"/><path class="cls-2" d="M212.53,446v32.46h19.7V481h-22.4V446Z"/><path class="cls-2" d="M253.14,448.21a2,2,0,0,1-3.95,0A2,2,0,0,1,253.14,448.21Zm-3.25,8V481h2.45V456.16Z"/><path class="cls-2" d="M289.31,460.77a10.54,10.54,0,0,0-7.71-2.61c-3.85-.05-7.55,1.41-7.45,4.56s4.4,3.95,7.5,4.5c4.41.75,10.46,1.5,10.21,7.25-.15,5.45-5.8,6.9-10.16,6.9s-8.65-1.65-10.8-4.95l1.8-1.6c2.05,2.95,5.75,4.2,9.05,4.2,3,0,7.56-.8,7.71-4.7.1-3.55-4-4.25-8.06-4.9-4.8-.8-9.55-1.7-9.6-6.65s4.8-7,9.8-6.91a12.92,12.92,0,0,1,9.21,3.31Z"/><path class="cls-2" d="M316,448.81v7.45h8.4v2.05H316v15.06c0,3.35.7,5.7,4.55,5.7a9.16,9.16,0,0,0,3.8-1l.85,2a10.8,10.8,0,0,1-4.65,1.25c-5.25,0-6.95-3.1-6.95-7.95V458.31h-5.25v-2.05h5.25v-7.2Z"/><path class="cls-2" d="M341.63,468.62a12.43,12.43,0,0,1,12.55-12.76c7,0,13.16,4.26,12.21,13.91H344.13a9.72,9.72,0,0,0,10.05,9.15c3.26,0,7.06-1.3,8.91-3.75l1.75,1.4c-2.4,3.15-6.7,4.75-10.66,4.75C347.23,481.32,341.63,476.47,341.63,468.62Zm22.56-1c-.05-6.1-4.05-9.51-10-9.51-5.1,0-9.5,3.46-10.05,9.51Z"/><path class="cls-2" d="M388.15,456.26v4.41a9.82,9.82,0,0,1,8.8-4.86c6.6,0,11.16,4.06,11.16,10.91V481h-2.46v-14.2c0-5.6-3.45-8.61-8.8-8.56-5.1.05-8.65,3.91-8.65,9V481h-2.45V456.26Z"/><path class="cls-2" d="M477.43,452.71c-2.55-4.1-6.65-4.7-10.6-4.75s-10.6,1.5-10.6,7.1c0,4.45,4.8,5.51,10.7,6.61,6.75,1.3,13.75,2.5,13.75,10.05-.05,7.9-8,9.8-13.85,9.8-5.45,0-11.65-2.25-14.36-7.6l2.41-1.2c2.15,4.25,7.65,6.35,11.95,6.35s11.15-1.2,11.15-7.4c0-5.25-5.75-6.4-11.5-7.5-6.4-1.25-13-2.55-13-9-.15-7.4,7.56-9.7,13.31-9.7,5,0,9.35.8,12.8,6Z"/><path class="cls-2" d="M499.14,468.62a12.43,12.43,0,0,1,12.56-12.76c6.95,0,13.15,4.26,12.2,13.91H501.64a9.73,9.73,0,0,0,10.06,9.15c3.25,0,7.05-1.3,8.9-3.75l1.75,1.4c-2.4,3.15-6.7,4.75-10.65,4.75C504.75,481.32,499.14,476.47,499.14,468.62Zm22.56-1c-.05-6.1-4.05-9.51-10-9.51-5.1,0-9.51,3.46-10.06,9.51Z"/><path class="cls-2" d="M541.86,468.62a12.43,12.43,0,0,1,12.56-12.76c7,0,13.15,4.26,12.2,13.91H544.36a9.72,9.72,0,0,0,10.06,9.15c3.25,0,7.05-1.3,8.9-3.75l1.75,1.4c-2.4,3.15-6.7,4.75-10.65,4.75C547.46,481.32,541.86,476.47,541.86,468.62Zm22.56-1c0-6.1-4-9.51-10-9.51-5.11,0-9.51,3.46-10.06,9.51Z"/><path class="cls-2" d="M615.89,462.62h20.16v2.55H615.89V481h-2.7V446h23.56v2.7H615.89Z"/><path class="cls-2" d="M653.86,468.62a12.43,12.43,0,0,1,12.55-12.76c7,0,13.16,4.26,12.2,13.91H656.36a9.72,9.72,0,0,0,10,9.15c3.25,0,7.05-1.3,8.9-3.75l1.75,1.4c-2.4,3.15-6.7,4.75-10.65,4.75C659.46,481.32,653.86,476.47,653.86,468.62Zm22.55-1c0-6.1-4-9.51-10-9.51-5.1,0-9.5,3.46-10,9.51Z"/><path class="cls-2" d="M696.57,468.62a12.43,12.43,0,0,1,12.56-12.76c7,0,13.15,4.26,12.2,13.91H699.07a9.73,9.73,0,0,0,10.06,9.15c3.25,0,7-1.3,8.9-3.75l1.75,1.4c-2.4,3.15-6.7,4.75-10.65,4.75C702.17,481.32,696.57,476.47,696.57,468.62Zm22.56-1c0-6.1-4-9.51-10-9.51-5.1,0-9.51,3.46-10.06,9.51Z"/><path class="cls-2" d="M743.14,446v35h-2.45V446Z"/><path class="cls-2" d="M176.28,362.06a.83.83,0,0,1,.12,0l.1,0,.18.1a3.73,3.73,0,0,1,.3.26,2.85,2.85,0,0,1,.45.6,5.31,5.31,0,0,1,.5,1.36,10.82,10.82,0,0,1,.2,2.77l0,.69-.07.69c0,.45-.11.9-.18,1.35l-.2,1.32c0,.22-.07.44-.09.65l-.07.66a47.66,47.66,0,0,0,.23,10.54q.33,2.63.87,5.2c.19.85.4,1.7.63,2.54l.18.61.1.32.1.39a6.25,6.25,0,0,1,.19,1.6,9.44,9.44,0,0,1-.5,3,17,17,0,0,1-1.17,2.68,32.92,32.92,0,0,1-3.14,4.65c-1.16,1.44-2.38,2.8-3.63,4.13l-.94,1c-.16.16-.33.33-.46.48s-.25.26-.36.4a3.3,3.3,0,0,0-.76,1.56,1.59,1.59,0,0,0,.36,1.23A3.79,3.79,0,0,0,170.6,414a7.55,7.55,0,0,0,4.16.53,8.86,8.86,0,0,0,2.09-.57l1.21-.54c.46-.19.94-.36,1.42-.52a15,15,0,0,1,6.16-.74,10.41,10.41,0,0,1,3.3.89,7.72,7.72,0,0,1,4.35,5.8,10.78,10.78,0,0,1,0,3.4A26.68,26.68,0,0,1,192,428a15.75,15.75,0,0,1-.64,1.48c-.11.24-.26.49-.4.73l-.21.36-.24.36c-.17.23-.32.48-.51.7l-.58.67a11.36,11.36,0,0,1-1.33,1.17,12,12,0,0,1-3,1.65l-.38.15-.37.12-.76.25-.75.19-.36.1-.35.08c-1.83.42-3.66.75-5.49,1-.92.13-1.84.25-2.76.35l-1.38.14-.29,0-.24,0c-.16,0-.33.05-.49.09a7,7,0,0,0-1.8.58,6.74,6.74,0,0,0-.79.45,6,6,0,0,0-.63.49,2.24,2.24,0,0,0-.61.87,2,2,0,0,0,0,1.06,5.76,5.76,0,0,0,.22.77c.13.29.24.58.4.86a8.16,8.16,0,0,0,1.14,1.61c.11.13.22.25.35.38l.43.42c.38.36.74.74,1.08,1.12a19,19,0,0,1,1.92,2.5,14.66,14.66,0,0,1,1.46,2.94,11.83,11.83,0,0,1,.71,3.39,10.68,10.68,0,0,1-.44,3.52,11.16,11.16,0,0,1-1.49,3.06l-.76,1.09a10.33,10.33,0,0,0-.66,1l-.63,1.06c-.21.37-.39.75-.59,1.13a74.18,74.18,0,0,0-3.93,9.68c-.3.84-.56,1.68-.84,2.53l-.8,2.55c-.27.85-.52,1.71-.77,2.57s-.5,1.72-.75,2.58h0a.31.31,0,0,1-.37.21.32.32,0,0,1-.22-.3c0-.91.09-1.81.14-2.71s.15-1.8.25-2.7c.18-1.8.44-3.59.73-5.39a59.71,59.71,0,0,1,2.7-10.7c.17-.44.32-.89.51-1.33l.59-1.32a12.66,12.66,0,0,1,.69-1.31l.65-1.19a6.91,6.91,0,0,0,.69-1.82,5.45,5.45,0,0,0,.05-1.8,8.12,8.12,0,0,0-1.6-3.59,14.19,14.19,0,0,0-1.46-1.67,10.09,10.09,0,0,0-.83-.77l-.55-.48-.6-.57a14.78,14.78,0,0,1-2.06-2.68,16.1,16.1,0,0,1-.79-1.55,13.25,13.25,0,0,1-.58-1.78,8.12,8.12,0,0,1,.12-4.25,8.23,8.23,0,0,1,2.31-3.55,10.44,10.44,0,0,1,1.49-1.15,13,13,0,0,1,1.56-.84,13.7,13.7,0,0,1,3.31-1q.42-.07.84-.12l.42,0,.38,0,1.29-.08c.86,0,1.73-.13,2.59-.21,1.71-.16,3.42-.37,5.1-.65l.31-.06.29-.05.56-.12.53-.13.26-.07.25-.09a6.36,6.36,0,0,0,2.48-1.38l.32-.33c.11-.1.19-.24.3-.36l.15-.19.13-.21c.09-.15.19-.27.27-.43a8.75,8.75,0,0,0,.48-1,21.44,21.44,0,0,0,1.27-4.63,6.16,6.16,0,0,0,.08-1.94,3.31,3.31,0,0,0-.53-1.49,3.39,3.39,0,0,0-1.19-1,5.59,5.59,0,0,0-1.84-.56,10.73,10.73,0,0,0-4.42.39c-.38.1-.75.23-1.12.36l-1.26.5a12.33,12.33,0,0,1-3.11.72,11.77,11.77,0,0,1-3.19-.11,10.87,10.87,0,0,1-3.1-1,7.28,7.28,0,0,1-2.68-2.33,5.55,5.55,0,0,1-.8-1.82,5.14,5.14,0,0,1,0-2,6.59,6.59,0,0,1,1.64-3.16c.18-.21.37-.39.56-.58l.49-.47,1-.91c1.26-1.22,2.49-2.47,3.63-3.77a28.92,28.92,0,0,0,3.08-4.08,9.62,9.62,0,0,0,1.59-4.4,4.15,4.15,0,0,0-.06-1.06l-.06-.26-.08-.33-.16-.68c-.2-.9-.38-1.8-.52-2.7-.3-1.8-.5-3.61-.62-5.43a48.93,48.93,0,0,1,.38-10.88l.11-.67c0-.22.09-.45.14-.67l.28-1.32c.1-.43.19-.86.26-1.29l.1-.65.07-.65a10,10,0,0,0,0-2.57,3.93,3.93,0,0,0-.35-1.18,2.53,2.53,0,0,0-.31-.49c-.07-.06-.13-.13-.2-.18l-.11-.08-.05,0h0a.29.29,0,0,1-.21-.36A.3.3,0,0,1,176.28,362.06Z"/></svg>