<svg id="Layer_1" data-name="Layer 1" xmlns="http://www.w3.org/2000/svg" viewBox="0 0 914.14 841.89"><defs><style>.cls-1{fill:#6e7279;}.cls-2{fill:#003466;}</style></defs><title>svg</title><path class="cls-1" d="M194.35,494l5.2-4.06a.93.93,0,0,1,1.29.14c3.13,3.64,7.9,4.78,12.54,4.78,3.77,0,9.4-1.43,9.4-6.13,0-9.55-27.71-8.55-27.71-24.86,0-9.76,8.12-14.61,17.09-14.61,6.13,0,12.12,2.78,16.82,6.7a.84.84,0,0,1,.07,1.28l-4.35,4.92a.86.86,0,0,1-1.28.07,17.3,17.3,0,0,0-11.54-4.56c-4.28,0-8.41,1.5-8.41,6.48,0,8.55,27.72,7.41,27.72,24.87,0,9.69-9.55,14.24-18.1,14.24-7.05,0-14.32-2.42-18.88-8A.86.86,0,0,1,194.35,494Z"/><path class="cls-1" d="M261.46,450.16c12.83,0,25.65,8.69,25.65,26.07s-12.82,26.08-25.65,26.08-25.71-8.69-25.71-26.08S248.57,450.16,261.46,450.16Zm0,43.53c8.63,0,17.32-5.77,17.32-17.46s-8.69-17.45-17.32-17.45-17.31,5.77-17.31,17.45S252.77,493.69,261.46,493.69Z"/><path class="cls-1" d="M296.8,452.22a.86.86,0,0,1,.93-.92h1.06a2.35,2.35,0,0,1,1.5.64l27.29,29.28c.35.36.57.5.85.5s.5-.36.5-1.07V452.22a.86.86,0,0,1,.93-.92h6.69a.86.86,0,0,1,.93.92v48a.87.87,0,0,1-.93.93h-1a2.2,2.2,0,0,1-1.57-.71L306.7,471.1a1.1,1.1,0,0,0-.85-.49c-.29,0-.5.35-.5,1.06v28.57a.87.87,0,0,1-.93.93h-6.69a.87.87,0,0,1-.93-.93Z"/><path class="cls-1" d="M349.23,451.3h6.7a.86.86,0,0,1,.93.92v48a.87.87,0,0,1-.93.93h-6.7a.86.86,0,0,1-.92-.93v-48A.85.85,0,0,1,349.23,451.3Z"/><path class="cls-1" d="M392.26,450.23c5,0,9.76,2,14.11,4.49a.85.85,0,0,1,.21,1.28l-3.84,5.49a.82.82,0,0,1-1.29.21,15.57,15.57,0,0,0-9.11-3c-22.45,0-22.45,35.05,0,35.05,4.63,0,7.48-1.42,9.19-2.85a.77.77,0,0,1,1.21.14l3.92,5.42a.91.91,0,0,1-.22,1.28c-3.85,3-8,4.49-14.18,4.49-17.17,0-25.72-13-25.72-26S375.09,450.23,392.26,450.23Z"/><path class="cls-1" d="M431.66,458.35v-6.13a.86.86,0,0,1,.93-.92h39.18a.86.86,0,0,1,.93.92v6.13a.87.87,0,0,1-.93.93H458.45a1.93,1.93,0,0,0-2.07,2v39a.86.86,0,0,1-.92.93h-6.7a.9.9,0,0,1-.93-.93v-39a1.86,1.86,0,0,0-2-2H432.59A.87.87,0,0,1,431.66,458.35Z"/><path class="cls-1" d="M481.6,451.3h6.7a.85.85,0,0,1,.92.92v18a1.87,1.87,0,0,0,2,2H511a1.87,1.87,0,0,0,2-2v-18a.9.9,0,0,1,.93-.92h6.69a.86.86,0,0,1,.93.92v48a.87.87,0,0,1-.93.93H514a.9.9,0,0,1-.93-.93v-18a1.87,1.87,0,0,0-2-2h-19.8a1.88,1.88,0,0,0-2,2v18a.86.86,0,0,1-.92.93h-6.7a.86.86,0,0,1-.92-.93v-48A.85.85,0,0,1,481.6,451.3Z"/><path class="cls-1" d="M529.9,500.31l22.52-49.08a1.21,1.21,0,0,1,1.06-.64,1.11,1.11,0,0,1,1,.64L577,500.31c.21.5,0,.86-.57.86h-7a1.5,1.5,0,0,1-1.35-.86l-2-4.34a3.17,3.17,0,0,0-2.85-1.78h-19.6A3.17,3.17,0,0,0,540.8,496l-2,4.34a1.49,1.49,0,0,1-1.28.86h-7.06C529.9,501.17,529.69,500.81,529.9,500.31Zm17.46-14.1h12.25c1.21,0,1.64-.71,1.14-1.85l-6.41-14c-.29-.57-.57-.85-.86-.85s-.56.28-.85.85l-6.48,14C545.65,485.5,546.15,486.21,547.36,486.21Z"/><path class="cls-1" d="M584.76,500.24,592,451.8a.6.6,0,0,1,.57-.5h1.78a1,1,0,0,1,.85.5l17.67,33.55c.29.57.64.79.93.79s.64-.22.92-.79l17.74-33.7a.75.75,0,0,1,.57-.35h1.57a1,1,0,0,1,1,.85l7.27,48.09a.74.74,0,0,1-.79.93h-6.55a1,1,0,0,1-1.07-.93l-3.92-25.57c-.14-1.14-.71-1.29-1.28-.22l-13.61,25.86a1.59,1.59,0,0,1-1.35.86h-1a1.59,1.59,0,0,1-1.35-.86L598.3,474.45c-.57-1.07-1.07-.92-1.21.22l-3.92,25.57a1,1,0,0,1-1.07.93h-6.56A.73.73,0,0,1,584.76,500.24Z"/><path class="cls-1" d="M653.15,452.22a.86.86,0,0,1,.93-.92H684.5a.86.86,0,0,1,.93.92v6.13a.87.87,0,0,1-.93.93H663.7a1.87,1.87,0,0,0-2,2v9a1.87,1.87,0,0,0,2,2h15.67a.87.87,0,0,1,.93.93v6.13a.86.86,0,0,1-.93.92H663.7a1.88,1.88,0,0,0-2,2v9a1.87,1.87,0,0,0,2,2h20.8a.87.87,0,0,1,.93.93v6.12a.87.87,0,0,1-.93.93H654.08a.87.87,0,0,1-.93-.93Z"/><path class="cls-1" d="M694.12,494l5.2-4.06a.92.92,0,0,1,1.28.14c3.13,3.64,7.91,4.78,12.54,4.78,3.78,0,9.4-1.43,9.4-6.13,0-9.55-27.71-8.55-27.71-24.86,0-9.76,8.12-14.61,17.1-14.61,6.12,0,12.11,2.78,16.81,6.7a.84.84,0,0,1,.07,1.28l-4.34,4.92a.87.87,0,0,1-1.29.07,17.28,17.28,0,0,0-11.54-4.56c-4.27,0-8.4,1.5-8.4,6.48,0,8.55,27.71,7.41,27.71,24.87,0,9.69-9.55,14.24-18.1,14.24-7.05,0-14.32-2.42-18.88-8A.86.86,0,0,1,694.12,494Z"/><path class="cls-2" d="M196.53,513.79v32.46h19.7v2.55h-22.4v-35Z"/><path class="cls-2" d="M237.14,516a2,2,0,0,1-3.95,0A2,2,0,0,1,237.14,516Zm-3.25,8v24.8h2.45V524Z"/><path class="cls-2" d="M273.31,528.6a10.57,10.57,0,0,0-7.71-2.6c-3.85,0-7.55,1.4-7.45,4.55.1,3.3,4.4,4,7.5,4.5,4.41.75,10.46,1.5,10.21,7.25-.15,5.45-5.8,6.91-10.16,6.91s-8.65-1.66-10.8-5l1.8-1.6c2.05,3,5.75,4.2,9.05,4.2,3,0,7.56-.8,7.71-4.7.1-3.55-4-4.25-8.06-4.9-4.8-.8-9.55-1.7-9.6-6.65s4.8-7,9.8-6.9a13,13,0,0,1,9.21,3.3Z"/><path class="cls-2" d="M300,516.64v7.46h8.4v2H300V541.2c0,3.35.7,5.7,4.55,5.7a9.16,9.16,0,0,0,3.8-1l.85,2a10.8,10.8,0,0,1-4.65,1.25c-5.25,0-6.95-3.1-6.95-7.95V526.15h-5.25v-2h5.25v-7.21Z"/><path class="cls-2" d="M325.63,536.45a12.42,12.42,0,0,1,12.55-12.75c7,0,13.16,4.25,12.21,13.9H328.13a9.72,9.72,0,0,0,10.05,9.15c3.26,0,7.06-1.3,8.91-3.75l1.75,1.4c-2.4,3.15-6.7,4.75-10.66,4.75C331.23,549.15,325.63,544.3,325.63,536.45Zm22.56-1c-.05-6.1-4.05-9.5-10-9.5-5.1,0-9.5,3.45-10.05,9.5Z"/><path class="cls-2" d="M372.15,524.1v4.4a9.83,9.83,0,0,1,8.8-4.85c6.6,0,11.16,4.05,11.16,10.9V548.8h-2.46V534.6c0-5.6-3.45-8.6-8.8-8.55-5.1.05-8.65,3.9-8.65,9V548.8h-2.45V524.1Z"/><path class="cls-2" d="M461.43,520.54c-2.55-4.1-6.65-4.7-10.6-4.75s-10.6,1.5-10.6,7.1c0,4.46,4.8,5.51,10.7,6.61,6.75,1.3,13.75,2.5,13.75,10-.05,7.9-8,9.8-13.85,9.8-5.45,0-11.65-2.25-14.36-7.6l2.41-1.2c2.15,4.25,7.65,6.35,11.95,6.35S462,545.7,462,539.5c0-5.25-5.75-6.4-11.5-7.5-6.4-1.25-13-2.55-13-9-.15-7.41,7.56-9.71,13.31-9.71,5,0,9.35.8,12.8,6Z"/><path class="cls-2" d="M483.14,536.45A12.43,12.43,0,0,1,495.7,523.7c6.95,0,13.15,4.25,12.2,13.9H485.64a9.73,9.73,0,0,0,10.06,9.15c3.25,0,7.05-1.3,8.9-3.75l1.75,1.4c-2.4,3.15-6.7,4.75-10.65,4.75C488.75,549.15,483.14,544.3,483.14,536.45Zm22.56-1c-.05-6.1-4.05-9.5-10-9.5-5.1,0-9.51,3.45-10.06,9.5Z"/><path class="cls-2" d="M525.86,536.45a12.42,12.42,0,0,1,12.56-12.75c7,0,13.15,4.25,12.2,13.9H528.36a9.72,9.72,0,0,0,10.06,9.15c3.25,0,7.05-1.3,8.9-3.75l1.75,1.4c-2.4,3.15-6.7,4.75-10.65,4.75C531.46,549.15,525.86,544.3,525.86,536.45Zm22.56-1c0-6.1-4-9.5-10-9.5-5.11,0-9.51,3.45-10.06,9.5Z"/><path class="cls-2" d="M599.89,530.45h20.16V533H599.89v15.85h-2.7V513.79h23.56v2.7H599.89Z"/><path class="cls-2" d="M637.86,536.45a12.42,12.42,0,0,1,12.55-12.75c7,0,13.16,4.25,12.2,13.9H640.36a9.72,9.72,0,0,0,10,9.15c3.25,0,7.05-1.3,8.9-3.75l1.75,1.4c-2.4,3.15-6.7,4.75-10.65,4.75C643.46,549.15,637.86,544.3,637.86,536.45Zm22.55-1c0-6.1-4-9.5-10-9.5-5.1,0-9.5,3.45-10,9.5Z"/><path class="cls-2" d="M680.57,536.45a12.42,12.42,0,0,1,12.56-12.75c7,0,13.15,4.25,12.2,13.9H683.07a9.73,9.73,0,0,0,10.06,9.15c3.25,0,7-1.3,8.9-3.75l1.75,1.4c-2.4,3.15-6.7,4.75-10.65,4.75C686.17,549.15,680.57,544.3,680.57,536.45Zm22.56-1c0-6.1-4-9.5-10-9.5-5.1,0-9.51,3.45-10.06,9.5Z"/><path class="cls-2" d="M727.14,513.79v35h-2.45v-35Z"/><path class="cls-2" d="M680.64,374.94a125.57,125.57,0,0,1-12.56-1.2l-2.32-.31-2.31-.3a66.45,66.45,0,0,0-10.85-.86c-10.2.29-21.06.67-31.88,1.75a181,181,0,0,0-35.08,7.35c-7,2.14-14.26,1.35-23-2.44-12.35-5.38-22.64-13.6-31.92-21.67-2-1.74-4-3.58-5.91-5.37-2.15-2-4.39-4.07-6.66-6a20.05,20.05,0,0,0-6.6-4c-4.62-1.52-8.95.73-11.6,6-4.11,8.2-4.27,16.88-.46,25.83,3.47,8.15,6.63,16.19,7.37,25,.72,8.57-.52,15.75-3.79,22-4.86,9.23-12.82,14.32-23.69,15.11-10.41.76-20.53-1.86-29.07-4.51-16.09-5-26.12-15.84-30.69-33.11-3.15-11.94-5.51-25.26-7.42-41.89a29.19,29.19,0,0,0-5.36-13.78c-2.07-2.89-4.53-4.46-7.43-4.7a12.24,12.24,0,0,0-4.66.6c-6.74,2.13-11.59,6.65-15,10.36-7.43,8-15.39,13.42-24.3,16.67-13.4,4.9-26.37,3-38.55-5.66-9.26-6.58-20-11.95-32.81-16.41-11.75-4.08-23.79-7.92-35.44-11.63l-11.89-3.79c-1.8-.59-3.63-1.06-5.4-1.53l-1.2-.31,5.81.41c6.87.5,14,1,20.9,1.88,17,2.17,39.11,5.81,59.82,14.88a107.78,107.78,0,0,1,9.83,5c9.44,5.34,18.94,4.5,28.22-2.51a95.33,95.33,0,0,0,10.85-10.1c1-1,2-2,3-3,8.37-8.44,16.42-13.08,25.34-14.64,11.41-2,21,1.88,28.58,11.51,5.81,7.39,9,16.5,9.87,27.84.94,12.76,2,27.21,5.75,41.1,2.42,8.95,8.27,15,17.39,18.05A114,114,0,0,0,473.78,421c6,.91,10.8-.14,14.27-3.13,3.92-3.37,6-9.2,6-16.87,0-7.5-2.41-14.41-5-20.76-4.76-11.72-4.83-23.16-.23-34,3-6.94,7.18-11.41,12.92-13.61,7.46-2.89,14.45-1.21,21.37,5.16,3.31,3.05,6.58,6.28,9.75,9.39,3.54,3.48,7.19,7.08,10.94,10.48,5.93,5.37,14,12.08,24,16.34a28.3,28.3,0,0,0,18.91,1.5c10.89-2.86,23-4.59,38.1-5.44a180.48,180.48,0,0,1,32.11.87c4.19.52,8.44,1.35,12.57,2.14,1.73.34,3.47.68,5.22,1C676.65,374.43,678.63,374.74,680.64,374.94Z"/></svg>